<svg width="161" height="160" viewBox="0 0 161 160" fill="none" xmlns="http://www.w3.org/2000/svg">
<path d="M31.5 43H132.5L144.5 148H31.5" stroke="white" stroke-width="1.5" stroke-linecap="round" stroke-linejoin="round"/>
<path d="M24.5 43H132.5L124.5 148H8.5L24.5 43Z" stroke="white" stroke-width="1.5" stroke-linecap="round" stroke-linejoin="round"/>
<path d="M125.5 43C125.5 37.4772 122.142 33 118 33C113.858 33 110.5 37.4772 110.5 43C110.5 48.5228 113.858 53 118 53" stroke="white" stroke-width="1.5" stroke-linecap="round" stroke-linejoin="round"/>
<path d="M98.5 43C98.5 37.4772 95.1421 33 91 33C86.8579 33 83.5 37.4772 83.5 43C83.5 48.5228 86.8579 53 91 53" stroke="white" stroke-width="1.5" stroke-linecap="round" stroke-linejoin="round"/>
<path d="M71.5 43C71.5 37.4772 68.1421 33 64 33C59.8579 33 56.5 37.4772 56.5 43C56.5 48.5228 59.8579 53 64 53" stroke="white" stroke-width="1.5" stroke-linecap="round" stroke-linejoin="round"/>
<path d="M44.5 43C44.5 37.4772 41.1421 33 37 33C32.8579 33 29.5 37.4772 29.5 43C29.5 48.5228 32.8579 53 37 53" stroke="white" stroke-width="1.5" stroke-linecap="round" stroke-linejoin="round"/>
<path d="M30.5 74H115.5" stroke="white" stroke-width="1.5" stroke-linecap="round" stroke-linejoin="round" stroke-dasharray="4 4"/>
<path d="M28.5 92H113.5" stroke="white" stroke-width="1.5" stroke-linecap="round" stroke-linejoin="round" stroke-dasharray="4 4"/>
<path d="M27.5 110H112.5" stroke="white" stroke-width="1.5" stroke-linecap="round" stroke-linejoin="round" stroke-dasharray="4 4"/>
<path d="M26.5 128H111.5" stroke="white" stroke-width="1.5" stroke-linecap="round" stroke-linejoin="round" stroke-dasharray="4 4"/>
<path d="M142.336 13.5882L142.716 20.8437L149.734 22.7241L142.951 25.3278L143.331 32.5833L138.759 26.937L131.976 29.5407L135.933 23.4474L131.361 17.8011L138.378 19.6815L142.336 13.5882Z" stroke="white" stroke-width="1.5" stroke-linecap="round" stroke-linejoin="round"/>
<path d="M152.5 35.8038L151.594 40.0678L155.369 42.2475L151.033 42.7031L150.127 46.9671L148.354 42.9847L144.019 43.4404L147.258 40.5235L145.485 36.5411L149.26 38.7207L152.5 35.8038Z" stroke="white" stroke-width="1.5" stroke-linecap="round" stroke-linejoin="round"/>
<path d="M11.4999 21.8038L12.4062 26.0678L8.63101 28.2475L12.9664 28.7031L13.8727 32.9671L15.6458 28.9847L19.9812 29.4404L16.7416 26.5235L18.5147 22.5411L14.7395 24.7207L11.4999 21.8038Z" stroke="white" stroke-width="1.5" stroke-linecap="round" stroke-linejoin="round"/>
</svg>
